<svg xmlns="http://www.w3.org/2000/svg" version="1.1" xmlns:xlink="http://www.w3.org/1999/xlink" viewBox="0 0 9.44731556474416 3.261572594421089"><g transform="matrix(0.7548806673102902,0,0,0.7548806673102902,3.522293342032138,1.2344739468726422)"><g transform="matrix(1,0,0,1,0,0)" clip-path="url(#SvgjsClipPath110429)"><g clip-path="url(#SvgjsClipPath1104274b2cd2b9-8b72-4b33-8bc6-0946c260c390)"><path d=" M -0.7329821908230023 1.3138392753381127 C -0.6298257508785869 1.213196318157526 -0.547416059202559 1.0932931967380353 -0.4904218880252138 0.9609228058499402 L -0.6226260241326202 0.8925083614710769 L -0.6226260241326202 0.8925083614710769 L -0.6522882307863926 0.8765609385389408 L -0.7001304995828019 0.8515234845354871 L -0.7160779225149372 0.8432308246107765 L -0.7095394791127607 0.8261670820733908 C -0.6726754425649757 0.7296750744452518 -0.6537592642623447 0.6272574804924349 -0.6537234988502856 0.5239634175094117 C -0.6538054066155072 0.4208662885258694 -0.6727771490473147 0.31865670180644123 -0.7096989533421225 0.22239764986261468 C -0.7635469362305194 0.0807336992317772 -0.854617202061128 -0.04377858194013795 -0.9733098544102958 -0.13801410840355888 C -1.0863254274435876 -0.22747025600701176 -1.2202222223316272 -0.28673605046565237 -1.3624269739544121 -0.3102462760706287 L -1.3549316851763094 -0.14630676832826944 C -1.2460194700181062 -0.12235475548608554 -1.1445220690528226 -0.07239943091395495 -1.0591069897851857 -0.0007067969578666844 C -0.9698384385304692 0.07428120297525098 -0.9012190200273882 0.17084244869278753 -0.8597642031334829 0.2798083724184075 C -0.818697135361838 0.3868002845457663 -0.8050996990731922 0.502378492999273 -0.8202145942617882 0.6159800478278363 C -0.8345054900519671 0.7221331223236034 -0.8732669884168749 0.8235135483287204 -0.9334412970799526 0.9121236916776054 L -0.7747644389051982 0.9942529197781051 L -0.7269221701087889 1.0192903737815588 L -0.7066689429849784 1.029815672916769 L -0.7194268813306861 1.0487931062060107 C -0.7730137236974315 1.1292950381581253 -0.8387530705380115 1.2010057986642562 -0.9143043895613896 1.2613722538913852 C -0.990051351340121 1.321904610419463 -1.0747286326056986 1.370322369719985 -1.1653168265132137 1.4048990602806106 C -1.3421521317214584 1.4728594419694438 -1.5354518462522537 1.4855384796314177 -1.7196492476342642 1.4412591845658804 C -1.8988713470484737 1.39849839531581 -2.0616776284096554 1.3042625497883993 -2.1880250591511037 1.1701529947195664 L -2.3243755252208644 1.2575448723876725 C -2.1779583469123853 1.4216228675490024 -1.9858775467313388 1.53823740365198 -1.772754165998275 1.592440753962531 C -1.5526499352447005 1.6487421476221198 -1.320489309500639 1.6352561007113988 -1.1083845266454846 1.5538479904667608 C -0.9681457203494768 1.5003754085016765 -0.8403750471349773 1.4186868514975057 -0.7329821908230054 1.3138392753381127 Z" fill="#382d5e" transform="matrix(1,0,0,1,0,0)" fill-rule="evenodd"></path></g><g clip-path="url(#SvgjsClipPath1104274b2cd2b9-8b72-4b33-8bc6-0946c260c390)"><path d=" M -0.4001594742293211 0.5118433760809877 C -0.4017178966574648 0.3819140361612211 -0.42634034565027035 0.2532941381330144 -0.4728797227998647 0.13197576183750526 C -0.5610564382106045 -0.0995667713943329 -0.7250167751230376 -0.29444181015861726 -0.93806604973027 -0.420921391219653 C -1.14599504010719 -0.5448413722873814 -1.388961827222918 -0.596797591815935 -1.6293868338383717 -0.5687540018005551 L -1.6231673388948407 -0.43256300996011265 L -1.6210941739136602 -0.3863154834569179 L -1.618542586244517 -0.33209424548765515 L -1.6177452150979117 -0.31391418334501997 L -1.635606328781903 -0.31104364721723543 C -1.6642529488330395 -0.3064857690486057 -1.6926286402894202 -0.3003634341189921 -1.7206060930101907 -0.2927041108452792 C -1.7487577021292242 -0.2851930806984955 -1.77649188045646 -0.2761967733332307 -1.8036921664866195 -0.26575296608996873 L -1.8036921664866195 -0.26575296608996873 C -2.013490316032885 -0.1858197482525613 -2.182791773167379 -0.025585962381542426 -2.2741411429846328 0.1794990821752711 C -2.365150813863609 0.38268832799784247 -2.3723142611118475 0.613580559703051 -2.2940754216498043 0.822020752111035 L -2.1558112648281846 0.7336720290670009 C -2.2084864316439243 0.5691085925107748 -2.197095430468678 0.39072551410644374 -2.123916418963911 0.2341987428324982 C -2.048613209478587 0.07259102945973095 -1.9132496347071757 -0.05327535452045018 -1.7466003923895692 -0.11664456167449638 C -1.6957528984185886 -0.13618503966198792 -1.6427494849428363 -0.14956974003465345 -1.5887209053614233 -0.15651311900483672 C -1.542776148349345 -0.16250538613505533 -1.4963352074304723 -0.16373454797755704 -1.4501378000811613 -0.16018102627922798 L -1.4574736146299463 -0.3196552556005891 L -1.4574736146299463 -0.3196552556005891 L -1.4574736146299463 -0.33927058580711655 L -1.4600252022990867 -0.3934918237763793 L -1.4611415219043373 -0.41629663856933397 L -1.4383367071113833 -0.4147018962761203 C -1.2583549784865886 -0.4025837595384999 -1.0855975063935057 -0.33922459696752705 -0.9404581631700955 -0.23210390370316175 C -0.7959454586414549 -0.12534699983435849 -0.6852203376288684 0.020754797341748232 -0.6215097045273725 0.18874858747590995 C -0.5833904259229032 0.28809012539803713 -0.5624660191537694 0.3931975191945293 -0.5596337035506842 0.4995638604232424 C -0.5570823122076596 0.6003400041135676 -0.5707591857721113 0.7008704094081921 -0.6001401577983083 0.7973022465662258 L -0.4566133514090809 0.8717767116592998 C -0.41789964856758033 0.7557757725226995 -0.3988195303545745 0.634126544255049 -0.4001594742293211 0.5118433760809873 Z" fill="#c84449" transform="matrix(1,0,0,1,0,0)" fill-rule="evenodd"></path></g><g clip-path="url(#SvgjsClipPath1104274b2cd2b9-8b72-4b33-8bc6-0946c260c390)"><path d=" M -2.4616828366665544 1.0637836837622183 C -2.438532099859171 1.1050182989457773 -2.412805763641589 1.1447529714474682 -2.3846567839043358 1.1827514588359533 L -2.246233152853395 1.0942432615625985 L -2.246233152853395 1.0942432615625985 L -2.2302857299212597 1.0843558593446743 L -2.184516626106031 1.0550126011495438 L -2.1685692031738952 1.0452846731609409 L -2.157087058662756 1.0593184053412203 C -2.0445374648027146 1.1973949667989146 -1.8913814414645813 1.2965418715245478 -1.7193302991756223 1.3427041108452784 C -1.5473924877549834 1.3887073377734849 -1.3653108490974053 1.3791622855937042 -1.1991253631293404 1.3154340176313264 C -1.1269771952449377 1.2878551339182027 -1.058899937440315 1.2506245453315918 -0.9967525661205308 1.2047589024823027 C -0.9413762771371448 1.1637300818372023 -0.8912925525485236 1.1160032384056902 -0.8476441617050594 1.0626673641569695 L -0.9932441330754611 0.9872360536879652 C -1.0274033910297222 1.0248089702908194 -1.0656479732150008 1.0584535048286365 -1.107268207040237 1.0875453439311014 C -1.1534431221006998 1.119719790418587 -1.2033511007403133 1.1461731610709143 -1.2558981887677485 1.1663256132158533 C -1.4206438976545943 1.2296438785916637 -1.6034859196395044 1.22684411013002 -1.766215722596102 1.1585113759791072 C -1.921535358970774 1.0938231028144056 -2.0476522141523628 0.974290205869117 -2.120567460148162 0.8226586490283208 L -2.270951658398208 0.9183431866211373 L -2.3168802364427585 0.9476864448162676 L -2.3361766181906427 0.9601254347033337 L -2.3462234946378886 0.939553259120878 C -2.3527619380400653 0.9261574238578838 -2.3588219587542754 0.9130805370535322 -2.3644035567805255 0.9001631244785018 C -2.3699851548067756 0.8872457119034718 -2.3758857012916645 0.8728930312645493 -2.3803509797126607 0.8598161444601975 C -2.4698049596671816 0.626653507746967 -2.4625727697950417 0.36744263899630214 -2.360257226818168 0.13963052484493077 C -2.258724002290645 -0.08853859080104903 -2.0704087934932067 -0.2668095565202931 -1.8370222804147798 -0.3556964314272163 C -1.81437693985115 -0.36430803981057014 -1.791572125058193 -0.37164385435935277 -1.7686078360359179 -0.378820194678814 C -1.7509061965812445 -0.3840828442464189 -1.7333640313558951 -0.3888670711260597 -1.7156623919012248 -0.39301340108841515 L -1.7234766291379762 -0.5534444757857043 C -1.7485140831414285 -0.5481818262180994 -1.7735515371448836 -0.5421218055038877 -1.7987484653776566 -0.5351049394137478 C -1.8306433112419307 -0.5261743825717515 -1.8625381571062014 -0.5155427672836609 -1.8944330029704721 -0.5032100935494755 C -2.167369609543494 -0.39931486850656267 -2.3876423296460034 -0.19092241235955254 -2.506495095105857 0.07584083311638667 C -2.626051060043461 0.3423334802027673 -2.634430725669985 0.6454937119788471 -2.5297783325867744 0.918183712391816 C -2.5106696749164117 0.9683164329425495 -2.487910135330006 1.0169802728544708 -2.4616828366665544 1.0637836837622165 Z" fill="#382d5e" transform="matrix(1,0,0,1,0,0)" fill-rule="evenodd"></path></g><g clip-path="url(#SvgjsClipPath1104274b2cd2b9-8b72-4b33-8bc6-0946c260c390)"><path d=" M -1.5014885019226405 1.1172075505848744 C -1.1743772654075415 1.1172075505848742 -0.9092012142231058 0.8520314994004361 -0.9092012142231058 0.5249202628853393 C -0.9092892726421344 0.19787130666615482 -1.1744395338487181 -0.06720756243985748 -1.5014885019227375 -0.06720755058487438 C -1.8285116632528942 -0.06720755058487382 -2.093616315392854 0.1978971015550881 -2.093616315392854 0.5249202628853393 C -2.0936586180308305 0.6819899519878272 -2.031292577976217 0.8326409509591703 -1.9202424868988377 0.9437209504909259 C -1.8091923958214553 1.0548009500226814 -1.6585581967217102 1.1172075562814283 -1.5014885019226498 1.1172075505848742 Z M -1.5014885019226405 0.9577333212635135 C -1.6163475932279403 0.9577333290545587 -1.7265000257361593 0.9120948204889048 -1.8077027122480556 0.8308622250685325 C -1.8889053987599518 0.7496296296481604 -1.9345033399044655 0.6394603979409512 -1.9344610345301363 0.5246013144266968 C -1.9344610508606566 0.285451377328922 -1.7406384232473184 0.09155735997025372 -1.5014885021410729 0.09146930758996041 C -1.2622869227803906 0.09155724931713072 -1.0683730176379966 0.2853997838650675 -1.0681970208564995 0.5246013144266968 C -1.0681547154897137 0.6395449883335849 -1.113786260039929 0.7497953458260054 -1.1950487609895568 0.8310877556827978 C -1.2763112619391908 0.9123801655395904 -1.3865448202308177 0.9580522775075149 -1.5014885019228283 0.9580522697221561 Z" fill="#e37f7c" transform="matrix(1,0,0,1,0,0)" fill-rule="evenodd"></path></g></g><g><path d=" M 0.5865 0.15749999999999975 C 0.5865 0.19799999999999984 0.5655 0.24899999999999978 0.5445 0.30149999999999977 C 0.537 0.3194999999999998 0.531 0.3314999999999998 0.531 0.34199999999999986 C 0.531 0.3689999999999998 0.6 0.4049999999999998 0.624 0.4049999999999998 C 0.636 0.4049999999999998 0.6435 0.39449999999999985 0.6525 0.3809999999999998 C 0.6900000000000001 0.3194999999999998 0.7395 0.22949999999999982 0.7395 0.18599999999999983 C 0.7395 0.11099999999999977 0.5655 -2.220446049250313e-16 0.5025000000000001 -2.220446049250313e-16 C 0.3675 -2.220446049250313e-16 0.105 0.25049999999999983 0.105 0.41549999999999976 C 0.105 0.6134999999999998 0.45 0.6344999999999998 0.45 0.7649999999999998 C 0.45 0.8369999999999999 0.354 0.9599999999999999 0.267 0.9599999999999999 C 0.231 0.9599999999999999 0.1785 0.8879999999999998 0.1785 0.8549999999999998 C 0.1785 0.8159999999999998 0.20700000000000002 0.7574999999999998 0.20700000000000002 0.7379999999999998 C 0.20700000000000002 0.7169999999999999 0.1455 0.6764999999999999 0.129 0.6764999999999999 C 0.099 0.6764999999999999 0 0.7934999999999999 0 0.8384999999999998 C 0 0.9254999999999998 0.183 1.0649999999999997 0.3075 1.0649999999999997 C 0.462 1.0649999999999997 0.651 0.8549999999999998 0.651 0.7259999999999998 C 0.651 0.5744999999999998 0.306 0.5609999999999998 0.306 0.43049999999999977 C 0.306 0.3059999999999998 0.47100000000000003 0.11099999999999977 0.531 0.11099999999999977 C 0.5535 0.11099999999999977 0.5865 0.13649999999999984 0.5865 0.15749999999999975 M 1.051471435546875 0.9344999999999998 C 1.051471435546875 1.0019999999999998 1.177471435546875 1.0649999999999997 1.244971435546875 1.0649999999999997 C 1.354471435546875 1.0649999999999997 1.441471435546875 0.9284999999999999 1.523971435546875 0.7784999999999997 C 1.523971435546875 0.7784999999999997 1.543471435546875 0.7439999999999998 1.543471435546875 0.7259999999999998 C 1.543471435546875 0.7079999999999997 1.511971435546875 0.6839999999999998 1.4924714355468751 0.6839999999999998 C 1.472971435546875 0.6839999999999998 1.459471435546875 0.7109999999999999 1.459471435546875 0.7109999999999999 C 1.385971435546875 0.8459999999999999 1.303471435546875 0.9614999999999998 1.259971435546875 0.9614999999999998 C 1.2464714355468751 0.9614999999999998 1.220971435546875 0.9389999999999998 1.220971435546875 0.9194999999999998 C 1.220971435546875 0.8399999999999999 1.313971435546875 0.5474999999999998 1.313971435546875 0.47699999999999976 C 1.313971435546875 0.42149999999999976 1.231471435546875 0.35999999999999976 1.1879714355468751 0.35999999999999976 C 1.097971435546875 0.35999999999999976 0.973471435546875 0.4604999999999998 0.973471435546875 0.4604999999999998 C 0.973471435546875 0.4604999999999998 1.015471435546875 0.31799999999999984 1.051471435546875 0.19199999999999984 C 1.054471435546875 0.17999999999999983 1.0589714355468751 0.1649999999999998 1.0589714355468751 0.15449999999999975 C 1.0589714355468751 0.12899999999999978 0.958471435546875 0.07499999999999984 0.929971435546875 0.07499999999999984 C 0.917971435546875 0.07499999999999984 0.904471435546875 0.08399999999999985 0.898471435546875 0.10649999999999982 C 0.854971435546875 0.23999999999999977 0.6734714355468749 0.9314999999999998 0.6734714355468749 0.9854999999999998 C 0.6734714355468749 1.0259999999999998 0.761971435546875 1.0649999999999997 0.797971435546875 1.0649999999999997 C 0.818971435546875 1.0649999999999997 0.823471435546875 1.0499999999999998 0.829471435546875 1.0304999999999997 C 0.838471435546875 0.9839999999999998 0.898471435546875 0.7379999999999998 0.938971435546875 0.6104999999999998 C 0.958471435546875 0.5459999999999998 1.045471435546875 0.4904999999999998 1.081471435546875 0.4904999999999998 C 1.100971435546875 0.4904999999999998 1.126471435546875 0.5159999999999998 1.126471435546875 0.5414999999999998 C 1.126471435546875 0.5984999999999998 1.051471435546875 0.8384999999999998 1.051471435546875 0.9344999999999998 M 1.8734421386718751 0.5234999999999999 C 1.8734421386718751 0.5654999999999999 1.826942138671875 0.7469999999999999 1.796942138671875 0.8099999999999998 C 1.754942138671875 0.8969999999999998 1.679942138671875 0.9494999999999998 1.6499421386718751 0.9494999999999998 C 1.624442138671875 0.9494999999999998 1.597442138671875 0.9239999999999998 1.597442138671875 0.8894999999999998 C 1.597442138671875 0.7574999999999998 1.717442138671875 0.47999999999999976 1.792442138671875 0.47999999999999976 C 1.816442138671875 0.47999999999999976 1.8734421386718751 0.49949999999999983 1.8734421386718751 0.5234999999999999 M 2.200442138671875 0.7109999999999999 C 2.126942138671875 0.8459999999999999 2.045942138671875 0.9614999999999998 2.000942138671875 0.9614999999999998 C 1.987442138671875 0.9614999999999998 1.960442138671875 0.9389999999999998 1.960442138671875 0.9194999999999998 C 1.960442138671875 0.7994999999999999 2.0624421386718748 0.5504999999999998 2.0624421386718748 0.4979999999999998 C 2.0624421386718748 0.4604999999999998 1.972442138671875 0.44999999999999984 1.933442138671875 0.44999999999999984 C 1.933442138671875 0.44999999999999984 1.856942138671875 0.35999999999999976 1.736942138671875 0.35999999999999976 C 1.600442138671875 0.35999999999999976 1.421942138671875 0.6914999999999998 1.421942138671875 0.8894999999999998 C 1.421942138671875 0.9704999999999998 1.546442138671875 1.0649999999999997 1.615442138671875 1.0649999999999997 C 1.691942138671875 1.0649999999999997 1.781942138671875 0.9659999999999999 1.781942138671875 0.9659999999999999 C 1.793942138671875 1.0079999999999998 1.918442138671875 1.0649999999999997 1.985942138671875 1.0649999999999997 C 2.093942138671875 1.0649999999999997 2.182442138671875 0.9284999999999999 2.264942138671875 0.7784999999999997 C 2.264942138671875 0.7784999999999997 2.284442138671875 0.7439999999999998 2.284442138671875 0.7259999999999998 C 2.284442138671875 0.7079999999999997 2.252942138671875 0.6839999999999998 2.233442138671875 0.6839999999999998 C 2.213942138671875 0.6839999999999998 2.200442138671875 0.7109999999999999 2.200442138671875 0.7109999999999999 M 2.573969970703125 0.9614999999999998 C 2.560469970703125 0.9614999999999998 2.546969970703125 0.9509999999999998 2.546969970703125 0.9344999999999998 C 2.546969970703125 0.8489999999999998 2.633969970703125 0.5744999999999998 2.633969970703125 0.5249999999999998 C 2.633969970703125 0.46199999999999986 2.443469970703125 0.44699999999999984 2.443469970703125 0.40949999999999986 C 2.443469970703125 0.37049999999999983 2.465969970703125 0.33299999999999985 2.465969970703125 0.30149999999999977 C 2.465969970703125 0.2669999999999998 2.389469970703125 0.21899999999999975 2.345969970703125 0.21899999999999975 C 2.308469970703125 0.21899999999999975 2.245469970703125 0.33599999999999985 2.245469970703125 0.3869999999999998 C 2.245469970703125 0.43799999999999983 2.308469970703125 0.47699999999999976 2.308469970703125 0.47699999999999976 C 2.308469970703125 0.47699999999999976 2.252969970703125 0.6164999999999998 2.200469970703125 0.7109999999999999 C 2.200469970703125 0.7109999999999999 2.179469970703125 0.7469999999999999 2.179469970703125 0.7649999999999998 C 2.179469970703125 0.7814999999999999 2.210969970703125 0.8054999999999999 2.231969970703125 0.8054999999999999 C 2.249969970703125 0.8054999999999999 2.264969970703125 0.7784999999999997 2.264969970703125 0.7784999999999997 C 2.338469970703125 0.6434999999999997 2.390969970703125 0.5204999999999999 2.390969970703125 0.5204999999999999 C 2.390969970703125 0.5204999999999999 2.450969970703125 0.5324999999999999 2.450969970703125 0.5489999999999998 C 2.450969970703125 0.6179999999999999 2.371469970703125 0.8324999999999998 2.371469970703125 0.9494999999999998 C 2.371469970703125 1.0079999999999998 2.491469970703125 1.0649999999999997 2.558969970703125 1.0649999999999997 C 2.666969970703125 1.0649999999999997 2.755469970703125 0.9284999999999999 2.837969970703125 0.7784999999999997 C 2.837969970703125 0.7784999999999997 2.857469970703125 0.7439999999999998 2.857469970703125 0.7259999999999998 C 2.857469970703125 0.7079999999999997 2.825969970703125 0.6839999999999998 2.806469970703125 0.6839999999999998 C 2.786969970703125 0.6839999999999998 2.773469970703125 0.7109999999999999 2.773469970703125 0.7109999999999999 C 2.699969970703125 0.8459999999999999 2.618969970703125 0.9614999999999998 2.573969970703125 0.9614999999999998 M 3.18749853515625 0.5234999999999999 C 3.18749853515625 0.5654999999999999 3.14099853515625 0.7469999999999999 3.11099853515625 0.8099999999999998 C 3.06899853515625 0.8969999999999998 2.99399853515625 0.9494999999999998 2.96399853515625 0.9494999999999998 C 2.93849853515625 0.9494999999999998 2.91149853515625 0.9239999999999998 2.91149853515625 0.8894999999999998 C 2.91149853515625 0.7574999999999998 3.03149853515625 0.47999999999999976 3.10649853515625 0.47999999999999976 C 3.13049853515625 0.47999999999999976 3.18749853515625 0.49949999999999983 3.18749853515625 0.5234999999999999 M 3.51449853515625 0.7109999999999999 C 3.44099853515625 0.8459999999999999 3.35999853515625 0.9614999999999998 3.31499853515625 0.9614999999999998 C 3.30149853515625 0.9614999999999998 3.27449853515625 0.9389999999999998 3.27449853515625 0.9194999999999998 C 3.27449853515625 0.7994999999999999 3.3764985351562498 0.5504999999999998 3.3764985351562498 0.4979999999999998 C 3.3764985351562498 0.4604999999999998 3.28649853515625 0.44999999999999984 3.24749853515625 0.44999999999999984 C 3.24749853515625 0.44999999999999984 3.17099853515625 0.35999999999999976 3.05099853515625 0.35999999999999976 C 2.91449853515625 0.35999999999999976 2.73599853515625 0.6914999999999998 2.73599853515625 0.8894999999999998 C 2.73599853515625 0.9704999999999998 2.86049853515625 1.0649999999999997 2.92949853515625 1.0649999999999997 C 3.00599853515625 1.0649999999999997 3.09599853515625 0.9659999999999999 3.09599853515625 0.9659999999999999 C 3.1079985351562502 1.0079999999999998 3.23249853515625 1.0649999999999997 3.29999853515625 1.0649999999999997 C 3.40799853515625 1.0649999999999997 3.49649853515625 0.9284999999999999 3.57899853515625 0.7784999999999997 C 3.57899853515625 0.7784999999999997 3.59849853515625 0.7439999999999998 3.59849853515625 0.7259999999999998 C 3.59849853515625 0.7079999999999997 3.56699853515625 0.6839999999999998 3.54749853515625 0.6839999999999998 C 3.52799853515625 0.6839999999999998 3.51449853515625 0.7109999999999999 3.51449853515625 0.7109999999999999 M 3.6540263671875 0.8849999999999998 C 3.6540263671875 0.8024999999999998 3.6885263671875 0.6824999999999999 3.7200263671875 0.5999999999999999 C 3.7440263671875 0.5354999999999999 3.8235263671875 0.4784999999999998 3.8610263671875 0.4784999999999998 C 3.8850263671875 0.4784999999999998 3.9180263671875 0.5084999999999998 3.9180263671875 0.5384999999999998 C 3.9180263671875 0.5954999999999998 3.8940263671875 0.7004999999999998 3.8565263671875 0.7919999999999998 C 3.8520263671875 0.7919999999999998 3.8460263671875 0.7904999999999998 3.8415263671875 0.7904999999999998 C 3.8085263671875 0.7904999999999998 3.7485263671875 0.8489999999999998 3.7485263671875 0.8804999999999998 C 3.7485263671875 0.8954999999999999 3.7635263671875 0.9089999999999998 3.7875263671875 0.9209999999999998 C 3.7695263671875 0.9404999999999998 3.7425263671875 0.9584999999999998 3.7245263671875 0.9584999999999998 C 3.6915263671875 0.9584999999999998 3.6540263671875 0.9254999999999998 3.6540263671875 0.8849999999999998 M 3.9525263671875 0.9539999999999998 C 3.9735263671875 0.9554999999999998 3.9945263671875 0.9554999999999998 4.0125263671875 0.9554999999999998 C 4.2030263671875 0.9554999999999998 4.2945263671875 0.7784999999999997 4.2945263671875 0.7784999999999997 C 4.2945263671875 0.7784999999999997 4.3155263671875 0.7439999999999998 4.3155263671875 0.7259999999999998 C 4.3155263671875 0.7079999999999997 4.2825263671875 0.6839999999999998 4.2615263671875 0.6839999999999998 C 4.2435263671875 0.6839999999999998 4.2300263671875005 0.7109999999999999 4.2300263671875005 0.7109999999999999 C 4.2300263671875005 0.7109999999999999 4.1595263671875 0.8579999999999999 4.0530263671875 0.8579999999999999 C 4.0380263671875 0.8579999999999999 4.0260263671875 0.8564999999999998 4.0140263671875 0.8519999999999999 C 4.0665263671875 0.7364999999999998 4.0965263671875 0.6044999999999998 4.0965263671875 0.5174999999999998 C 4.0965263671875 0.4394999999999998 3.9900263671875003 0.35999999999999976 3.9240263671875 0.35999999999999976 C 3.8355263671875 0.35999999999999976 3.7530263671875 0.43799999999999983 3.7530263671875 0.43799999999999983 C 3.7530263671875 0.43799999999999983 3.7920263671875 0.3134999999999998 3.8250263671875 0.19349999999999978 C 3.8280263671875 0.18149999999999977 3.8340263671875 0.16799999999999982 3.8340263671875 0.1559999999999998 C 3.8340263671875 0.13049999999999984 3.7350263671875 0.07499999999999984 3.7065263671875 0.07499999999999984 C 3.6930263671875 0.07499999999999984 3.6795263671875 0.08399999999999985 3.6735263671875 0.10649999999999982 C 3.6000263671875 0.3554999999999998 3.4905263671875 0.7229999999999999 3.4905263671875 0.8444999999999998 C 3.4905263671875 0.9554999999999998 3.6510263671875 1.0649999999999997 3.7755263671875 1.0649999999999997 C 3.8415263671875 1.0649999999999997 3.9060263671875 1.0139999999999998 3.9525263671875 0.9539999999999998 M 4.672510986328125 0.7784999999999997 C 4.672510986328125 0.7784999999999997 4.692010986328125 0.7439999999999998 4.692010986328125 0.7259999999999998 C 4.692010986328125 0.7079999999999997 4.660510986328125 0.6839999999999998 4.641010986328125 0.6839999999999998 C 4.621510986328125 0.6839999999999998 4.608010986328125 0.7109999999999999 4.608010986328125 0.7109999999999999 C 4.534510986328125 0.8459999999999999 4.453510986328125 0.9614999999999998 4.408510986328125 0.9614999999999998 C 4.395010986328125 0.9614999999999998 4.353010986328125 0.9389999999999998 4.353010986328125 0.9194999999999998 C 4.353010986328125 0.8489999999999998 4.534510986328125 0.24149999999999983 4.549510986328125 0.19349999999999978 C 4.552510986328125 0.18149999999999977 4.555510986328125 0.16799999999999982 4.555510986328125 0.1559999999999998 C 4.555510986328125 0.13049999999999984 4.455010986328125 0.07499999999999984 4.426510986328125 0.07499999999999984 C 4.414510986328125 0.07499999999999984 4.402510986328125 0.08399999999999985 4.395010986328125 0.10649999999999982 C 4.347010986328125 0.25349999999999984 4.176010986328125 0.8534999999999998 4.176010986328125 0.9344999999999998 C 4.176010986328125 1.0019999999999998 4.326010986328125 1.0649999999999997 4.393510986328125 1.0649999999999997 C 4.501510986328125 1.0649999999999997 4.591510986328125 0.9284999999999999 4.672510986328125 0.7784999999999997 M 4.7775322265625 0.7259999999999998 C 4.7910322265625 0.6554999999999997 4.8795322265625 0.47699999999999976 4.9380322265625 0.47699999999999976 C 4.9590322265625 0.47699999999999976 4.9830322265625 0.4934999999999998 4.9830322265625 0.5144999999999998 C 4.9830322265625 0.5549999999999998 4.9215322265625 0.7259999999999998 4.7775322265625 0.7259999999999998 M 4.5780322265625 0.8504999999999998 C 4.5780322265625 0.9674999999999998 4.7595322265625 1.0649999999999997 4.8915322265625 1.0649999999999997 C 5.0130322265625 1.0649999999999997 5.1435322265625 0.9719999999999999 5.2455322265625 0.7784999999999997 C 5.2455322265625 0.7784999999999997 5.2635322265625 0.7439999999999998 5.2635322265625 0.7259999999999998 C 5.2635322265625 0.7079999999999997 5.2320322265625 0.6839999999999998 5.2125322265625 0.6839999999999998 C 5.1930322265625 0.6839999999999998 5.1810322265625 0.7109999999999999 5.1810322265625 0.7109999999999999 C 5.0835322265625 0.9029999999999998 4.9650322265625 0.9584999999999998 4.8840322265625 0.9584999999999998 C 4.8195322265625 0.9584999999999998 4.7550322265625 0.9029999999999998 4.7550322265625 0.8669999999999998 C 4.7550322265625 0.8189999999999998 4.7670322265625 0.7934999999999999 4.7670322265625 0.7934999999999999 C 4.7670322265625 0.7934999999999999 4.8405322265625 0.8144999999999998 4.9080322265625 0.8144999999999998 C 5.0055322265625 0.8144999999999998 5.1015322265625 0.5744999999999998 5.1015322265625 0.49949999999999983 C 5.1015322265625 0.43499999999999983 4.9635322265625 0.35999999999999976 4.8870322265625 0.35999999999999976 C 4.7475322265625 0.35999999999999976 4.5780322265625 0.6809999999999998 4.5780322265625 0.8504999999999998 M 5.413560791015625 0.5504999999999998 C 5.413560791015625 0.6314999999999998 5.448060791015625 0.7439999999999998 5.448060791015625 0.8519999999999999 C 5.448060791015625 0.9059999999999998 5.409060791015625 0.9584999999999998 5.358060791015625 0.9584999999999998 C 5.317560791015625 0.9584999999999998 5.269560791015625 0.8804999999999998 5.269560791015625 0.8054999999999999 C 5.269560791015625 0.7559999999999998 5.413560791015625 0.5504999999999998 5.413560791015625 0.5504999999999998 M 5.577060791015625 0.9359999999999998 C 5.577060791015625 0.9359999999999998 5.623560791015625 0.8714999999999998 5.623560791015625 0.8144999999999998 C 5.623560791015625 0.7019999999999997 5.566560791015625 0.5714999999999998 5.566560791015625 0.4259999999999998 C 5.566560791015625 0.3989999999999998 5.476560791015625 0.3404999999999998 5.457060791015625 0.3404999999999998 C 5.436060791015625 0.3404999999999998 5.418060791015625 0.3584999999999998 5.409060791015625 0.3749999999999998 C 5.358060791015625 0.45899999999999985 5.214060791015625 0.6794999999999998 5.214060791015625 0.6794999999999998 C 5.214060791015625 0.6794999999999998 5.089560791015625 0.7379999999999998 5.089560791015625 0.8114999999999998 C 5.089560791015625 0.9044999999999999 5.247060791015625 1.0649999999999997 5.397060791015625 1.0649999999999997 C 5.622060791015625 1.0649999999999997 5.767560791015625 0.9284999999999999 5.8500607910156255 0.7784999999999997 C 5.8500607910156255 0.7784999999999997 5.869560791015625 0.7439999999999998 5.869560791015625 0.7259999999999998 C 5.869560791015625 0.7079999999999997 5.838060791015625 0.6839999999999998 5.818560791015625 0.6839999999999998 C 5.799060791015625 0.6839999999999998 5.785560791015625 0.7109999999999999 5.785560791015625 0.7109999999999999 C 5.712060791015625 0.8459999999999999 5.641560791015625 0.9059999999999998 5.577060791015625 0.9359999999999998" fill="#382d5e" fill-rule="nonzero"></path></g><g></g></g><defs><clipPath id="SvgjsClipPath110429"><path d=" M -2.6026580553866387 -0.5762492905786591 h 2.202658055386639 v 2.202498581157318 h -2.202658055386639 Z"></path></clipPath><clipPath id="SvgjsClipPath1104274b2cd2b9-8b72-4b33-8bc6-0946c260c390"><path d=" M -2.6026580553866387 -0.5762492905786589 L -0.3999999999999999 -0.5762492905786589 L -0.3999999999999999 1.626249290578659 L -2.6026580553866387 1.626249290578659 Z"></path></clipPath></defs></svg>